<svg xmlns="http://www.w3.org/2000/svg" viewBox="0 0 1024 1024" role="img" aria-label="MyAssist app icon">
  <defs>
    <linearGradient id="bg" x1="180" y1="100" x2="860" y2="920" gradientUnits="userSpaceOnUse">
      <stop offset="0" stop-color="#fbfdff"/>
      <stop offset="0.55" stop-color="#e8f1fb"/>
      <stop offset="1" stop-color="#d8e7f7"/>
    </linearGradient>
    <linearGradient id="bookLeft" x1="238" y1="300" x2="514" y2="790" gradientUnits="userSpaceOnUse">
      <stop offset="0" stop-color="#ffffff"/>
      <stop offset="1" stop-color="#dbeafe"/>
    </linearGradient>
    <linearGradient id="bookRight" x1="515" y1="300" x2="790" y2="790" gradientUnits="userSpaceOnUse">
      <stop offset="0" stop-color="#ffffff"/>
      <stop offset="1" stop-color="#eef2ff"/>
    </linearGradient>
    <linearGradient id="pen" x1="674" y1="214" x2="404" y2="846" gradientUnits="userSpaceOnUse">
      <stop offset="0" stop-color="#334155"/>
      <stop offset="1" stop-color="#0f172a"/>
    </linearGradient>
    <filter id="shadow" x="-20%" y="-20%" width="140%" height="150%" color-interpolation-filters="sRGB">
      <feDropShadow dx="0" dy="28" stdDeviation="28" flood-color="#0f172a" flood-opacity="0.22"/>
    </filter>
    <filter id="softShadow" x="-20%" y="-20%" width="140%" height="150%" color-interpolation-filters="sRGB">
      <feDropShadow dx="0" dy="12" stdDeviation="14" flood-color="#0f172a" flood-opacity="0.16"/>
    </filter>
  </defs>

  <rect width="1024" height="1024" rx="224" fill="url(#bg)"/>
  <circle cx="260" cy="236" r="122" fill="#facc15" opacity="0.22"/>
  <circle cx="802" cy="784" r="158" fill="#38bdf8" opacity="0.16"/>

  <g filter="url(#shadow)">
    <path d="M220 322c0-34 28-60 62-55 72 10 153 34 231 82v456c-78-47-159-71-231-82-34-5-62 21-62 55V322Z" fill="url(#bookLeft)"/>
    <path d="M804 322c0-34-28-60-62-55-72 10-153 34-231 82v456c78-47 159-71 231-82 34-5 62 21 62 55V322Z" fill="url(#bookRight)"/>
    <path d="M512 349v456" stroke="#93a4ba" stroke-width="14" stroke-linecap="round"/>
    <path d="M278 388c58 8 118 27 178 58" stroke="#94a3b8" stroke-width="18" stroke-linecap="round" opacity="0.72"/>
    <path d="M278 474c58 8 118 27 178 58" stroke="#94a3b8" stroke-width="18" stroke-linecap="round" opacity="0.55"/>
    <path d="M746 388c-58 8-118 27-178 58" stroke="#94a3b8" stroke-width="18" stroke-linecap="round" opacity="0.72"/>
    <path d="M746 474c-58 8-118 27-178 58" stroke="#94a3b8" stroke-width="18" stroke-linecap="round" opacity="0.55"/>
  </g>

  <g filter="url(#softShadow)" transform="rotate(24 562 520)">
    <rect x="528" y="170" width="86" height="522" rx="43" fill="url(#pen)"/>
    <rect x="546" y="206" width="22" height="414" rx="11" fill="#f8fafc" opacity="0.22"/>
    <path d="M529 670h84l-42 148-42-148Z" fill="#f8fafc"/>
    <path d="M552 741h38l-19 77-19-77Z" fill="#0f172a"/>
    <rect x="540" y="148" width="62" height="74" rx="31" fill="#f8fafc"/>
    <rect x="548" y="158" width="46" height="52" rx="23" fill="#facc15"/>
  </g>
</svg>
